# xmcd CD database file
#
# Track frame offsets:
#	150
#	12815
#	27317
#	42928
#	62603
#	75758
#	89033
#	108793
#	123378
#	135588
#	152918
#	166273
#
# Disc length: 2393 seconds
#
# Revision: 5
# Processed by: cddbd v1.5.2PL0 Copyright (c) Steve Scherf et al.
# Submitted via: CDex 1.79
#
DISCID=8909570c
DTITLE=Emerson Drive - Emerson Drive
DYEAR=2002
DGENRE=Country
TTITLE0=Fall Into Me
TTITLE1=Evidence
TTITLE2=Passionate Desperate Love
TTITLE3=Only God (Could Stop Me Loving You)
TTITLE4=Say My Name
TTITLE5=I Should Be Sleeping
TTITLE6=Light Of Day
TTITLE7=Looking Over My Shoulder
TTITLE8=I See Heaven
TTITLE9=How Lucky I Am
TTITLE10=Hollywood Kiss
TTITLE11=It's All About You
EXTD=YEAR: 2002
EXTT0=
EXTT1=
EXTT2=
EXTT3=
EXTT4=
EXTT5=
EXTT6=
EXTT7=
EXTT8=
EXTT9=
EXTT10=
EXTT11=
PLAYORDER=
